# xmcd CD database file
#
# Track frame offsets:
#	150
#	40708
#	65046
#	78276
#	126620
#	146263
#	161390
#	207310
#	236190
#	265319
#
# Disc length: 3878 seconds
#
# Revision: 0
# Processed by: cddbd v1.5.1PL0 Copyright (c) Steve Scherf et al.
# Submitted via: CDex 1.51
#
DISCID=8f0f240a
DTITLE=606 Club - September 2005
DYEAR=2005
DGENRE=Jazz
TTITLE0=Dave Betts
TTITLE1=Alyson Green
TTITLE2=Robin Katz
TTITLE3=Robin Jones
TTITLE4=Sarah Moule
TTITLE5=David Migden
TTITLE6=Peter Churchill
TTITLE7=Alex Hutton
TTITLE8=Jay Rose
TTITLE9=Almeida Girl and Descarga
EXTD=YEAR: 2005
EXTT0=
EXTT1=
EXTT2=
EXTT3=
EXTT4=
EXTT5=
EXTT6=
EXTT7=
EXTT8=
EXTT9=
PLAYORDER=
